%TF.GenerationSoftware,KiCad,Pcbnew,10.0.5*%
%TF.CreationDate,2026-09-18T20:18:03-04:00*%
%TF.ProjectId,USB_Keyboard_32U4,5553425f-4b65-4796-926f-6172645f3332,rev?*%
%TF.SameCoordinates,Original*%
%TF.FileFunction,Copper,L2,Bot*%
%TF.FilePolarity,Positive*%
%FSLAX46Y46*%
G04 Gerber Fmt 4.6, Leading zero omitted, Abs format (unit mm)*
G04 Created by KiCad (PCBNEW 10.0.5) date 2026-09-18 20:18:03*
%MOMM*%
%LPD*%
G01*
G04 APERTURE LIST*
%TA.AperFunction,ComponentPad*%
%ADD10O,1.000000X2.100000*%
%TD*%
%TA.AperFunction,ComponentPad*%
%ADD11O,1.000000X1.800000*%
%TD*%
%TA.AperFunction,ViaPad*%
%ADD12C,0.600000*%
%TD*%
%TA.AperFunction,Conductor*%
%ADD13C,0.200000*%
%TD*%
G04 APERTURE END LIST*
D10*
%TO.P,J1,SH,SHIELD_SH*%
%TO.N,unconnected-(J1-SHIELD-PadSH)*%
X124115259Y-73057800D03*
D11*
X124115259Y-68877800D03*
D10*
X115475259Y-73057800D03*
D11*
X115475259Y-68877800D03*
%TD*%
D12*
%TO.N,Net-(U1-D-)*%
X114887500Y-82000000D03*
X117500000Y-77000000D03*
%TO.N,Net-(U1-D+)*%
X114500000Y-77500000D03*
X114287500Y-82800000D03*
%TO.N,Net-(U1-VBUS)*%
X117395259Y-73632800D03*
X124000000Y-93500000D03*
X114287500Y-85200000D03*
%TO.N,Net-(J1-CC2)*%
X117971695Y-72714051D03*
X123500000Y-75000000D03*
%TO.N,/Net-(J1-GND-PadA1)*%
X118350000Y-90062500D03*
X122516345Y-93084054D03*
X117009678Y-93056894D03*
X118350000Y-90062500D03*
%TO.N,/unconnected-(U1-PD5-Pad22)*%
X123950000Y-90062500D03*
X116000000Y-93500000D03*
%TD*%
%TO.N,Net-(U1-D-)*%
D13*
X117500000Y-77000000D02*
X114887500Y-79612500D01*
X114887500Y-79612500D02*
X114887500Y-82000000D01*
%TO.N,Net-(U1-D+)*%
X114287500Y-77712500D02*
X114287500Y-82800000D01*
X114500000Y-77500000D02*
X114287500Y-77712500D01*
%TO.N,Net-(U1-VBUS)*%
X117000000Y-85200000D02*
X118100000Y-84100000D01*
X117000000Y-85200000D02*
X114287500Y-85200000D01*
X124550000Y-89813971D02*
X119936029Y-85200000D01*
X118100000Y-84100000D02*
X118100000Y-81618992D01*
X118100000Y-74337541D02*
X118100000Y-81143451D01*
X118100000Y-81143451D02*
X118100000Y-81409195D01*
X124000000Y-93500000D02*
X124550000Y-92950000D01*
X117395259Y-73632800D02*
X118100000Y-74337541D01*
X118100000Y-81618992D02*
X118100000Y-81409195D01*
X119936029Y-85200000D02*
X117000000Y-85200000D01*
X124550000Y-92950000D02*
X124550000Y-89813971D01*
%TO.N,Net-(J1-CC2)*%
X123500000Y-75000000D02*
X121214051Y-72714051D01*
X121214051Y-72714051D02*
X117971695Y-72714051D01*
%TO.N,/Net-(J1-GND-PadA1)*%
X117009678Y-93056894D02*
X118350000Y-91716572D01*
X118350000Y-91716572D02*
X118350000Y-90062500D01*
X119494791Y-90062500D02*
X118350000Y-90062500D01*
X122516345Y-93084054D02*
X119494791Y-90062500D01*
%TO.N,/unconnected-(U1-PD5-Pad22)*%
X116000000Y-93500000D02*
X116184054Y-93684054D01*
X116184054Y-93684054D02*
X122764874Y-93684054D01*
X122764874Y-93684054D02*
X123950000Y-92498928D01*
X123950000Y-92498928D02*
X123950000Y-90062500D01*
%TD*%
M02*
