%TF.GenerationSoftware,KiCad,Pcbnew,10.0.5*%
%TF.CreationDate,2026-09-18T20:18:03-04:00*%
%TF.ProjectId,USB_Keyboard_32U4,5553425f-4b65-4796-926f-6172645f3332,rev?*%
%TF.SameCoordinates,Original*%
%TF.FileFunction,Soldermask,Top*%
%TF.FilePolarity,Negative*%
%FSLAX46Y46*%
G04 Gerber Fmt 4.6, Leading zero omitted, Abs format (unit mm)*
G04 Created by KiCad (PCBNEW 10.0.5) date 2026-09-18 20:18:03*
%MOMM*%
%LPD*%
G01*
G04 APERTURE LIST*
G04 Aperture macros list*
%AMRoundRect*
0 Rectangle with rounded corners*
0 $1 Rounding radius*
0 $2 $3 $4 $5 $6 $7 $8 $9 X,Y pos of 4 corners*
0 Add a 4 corners polygon primitive as box body*
4,1,4,$2,$3,$4,$5,$6,$7,$8,$9,$2,$3,0*
0 Add four circle primitives for the rounded corners*
1,1,$1+$1,$2,$3*
1,1,$1+$1,$4,$5*
1,1,$1+$1,$6,$7*
1,1,$1+$1,$8,$9*
0 Add four rect primitives between the rounded corners*
20,1,$1+$1,$2,$3,$4,$5,0*
20,1,$1+$1,$4,$5,$6,$7,0*
20,1,$1+$1,$6,$7,$8,$9,0*
20,1,$1+$1,$8,$9,$2,$3,0*%
G04 Aperture macros list end*
%ADD10RoundRect,0.100000X0.100000X-0.130000X0.100000X0.130000X-0.100000X0.130000X-0.100000X-0.130000X0*%
%ADD11RoundRect,0.137500X-0.600000X-0.137500X0.600000X-0.137500X0.600000X0.137500X-0.600000X0.137500X0*%
%ADD12RoundRect,0.137500X-0.137500X-0.600000X0.137500X-0.600000X0.137500X0.600000X-0.137500X0.600000X0*%
%ADD13RoundRect,0.200000X-0.275000X0.200000X-0.275000X-0.200000X0.275000X-0.200000X0.275000X0.200000X0*%
%ADD14C,0.650000*%
%ADD15RoundRect,0.150000X0.150000X0.425000X-0.150000X0.425000X-0.150000X-0.425000X0.150000X-0.425000X0*%
%ADD16RoundRect,0.075000X0.075000X0.500000X-0.075000X0.500000X-0.075000X-0.500000X0.075000X-0.500000X0*%
%ADD17O,1.000000X2.100000*%
%ADD18O,1.000000X1.800000*%
%ADD19RoundRect,0.250000X0.450000X0.350000X-0.450000X0.350000X-0.450000X-0.350000X0.450000X-0.350000X0*%
%ADD20RoundRect,0.200000X0.275000X-0.200000X0.275000X0.200000X-0.275000X0.200000X-0.275000X-0.200000X0*%
G04 APERTURE END LIST*
D10*
%TO.C,USER*%
X117017286Y-92966894D03*
X117017286Y-92326894D03*
%TD*%
D11*
%TO.C,U1*%
X114287500Y-80400000D03*
X114287500Y-81200000D03*
X114287500Y-82000000D03*
X114287500Y-82800000D03*
X114287500Y-83600000D03*
X114287500Y-84400000D03*
X114287500Y-85200000D03*
X114287500Y-86000000D03*
X114287500Y-86800000D03*
X114287500Y-87600000D03*
X114287500Y-88400000D03*
D12*
X115950000Y-90062500D03*
X116750000Y-90062500D03*
X117550000Y-90062500D03*
X118350000Y-90062500D03*
X119150000Y-90062500D03*
X119950000Y-90062500D03*
X120750000Y-90062500D03*
X121550000Y-90062500D03*
X122350000Y-90062500D03*
X123150000Y-90062500D03*
X123950000Y-90062500D03*
D11*
X125612500Y-88400000D03*
X125612500Y-87600000D03*
X125612500Y-86800000D03*
X125612500Y-86000000D03*
X125612500Y-85200000D03*
X125612500Y-84400000D03*
X125612500Y-83600000D03*
X125612500Y-82800000D03*
X125612500Y-82000000D03*
X125612500Y-81200000D03*
X125612500Y-80400000D03*
D12*
X123950000Y-78737500D03*
X123150000Y-78737500D03*
X122350000Y-78737500D03*
X121550000Y-78737500D03*
X120750000Y-78737500D03*
X119950000Y-78737500D03*
X119150000Y-78737500D03*
X118350000Y-78737500D03*
X117550000Y-78737500D03*
X116750000Y-78737500D03*
X115950000Y-78737500D03*
%TD*%
D13*
%TO.C,R5*%
X123744871Y-91930271D03*
X123744871Y-93580271D03*
%TD*%
%TO.C,R1*%
X122255950Y-75362350D03*
X122255950Y-77012350D03*
%TD*%
%TO.C,R2*%
X123755950Y-75362350D03*
X123755950Y-77012350D03*
%TD*%
%TO.C,R4*%
X117660594Y-75367332D03*
X117660594Y-77017332D03*
%TD*%
D14*
%TO.C,J1*%
X122685259Y-72557800D03*
X116905259Y-72557800D03*
D15*
X122995259Y-73632800D03*
X122195259Y-73632800D03*
D16*
X121045259Y-73632800D03*
X120045259Y-73632800D03*
X119545259Y-73632800D03*
X118545259Y-73632800D03*
D15*
X117395259Y-73632800D03*
X116595259Y-73632800D03*
X116595259Y-73632800D03*
X117395259Y-73632800D03*
D16*
X118045259Y-73632800D03*
X119045259Y-73632800D03*
X120545259Y-73632800D03*
X121545259Y-73632800D03*
D15*
X122195259Y-73632800D03*
X122995259Y-73632800D03*
D17*
X124115259Y-73057800D03*
D18*
X124115259Y-68877800D03*
D17*
X115475259Y-73057800D03*
D18*
X115475259Y-68877800D03*
%TD*%
D13*
%TO.C,R3*%
X116160594Y-75367332D03*
X116160594Y-77017332D03*
%TD*%
D10*
%TO.C,POW*%
X122500000Y-92994054D03*
X122500000Y-92354054D03*
%TD*%
D19*
%TO.C,Y1*%
X120760246Y-92000000D03*
X118560246Y-92000000D03*
X118560246Y-93700000D03*
X120760246Y-93700000D03*
%TD*%
D20*
%TO.C,R6*%
X115800459Y-93527840D03*
X115800459Y-91877840D03*
%TD*%
M02*
