%TF.GenerationSoftware,KiCad,Pcbnew,10.0.5*%
%TF.CreationDate,2026-09-18T20:18:03-04:00*%
%TF.ProjectId,USB_Keyboard_32U4,5553425f-4b65-4796-926f-6172645f3332,rev?*%
%TF.SameCoordinates,Original*%
%TF.FileFunction,Legend,Top*%
%TF.FilePolarity,Positive*%
%FSLAX46Y46*%
G04 Gerber Fmt 4.6, Leading zero omitted, Abs format (unit mm)*
G04 Created by KiCad (PCBNEW 10.0.5) date 2026-09-18 20:18:03*
%MOMM*%
%LPD*%
G01*
G04 APERTURE LIST*
%ADD10C,0.125000*%
%ADD11C,0.062500*%
%ADD12C,0.100000*%
%ADD13C,0.120000*%
G04 APERTURE END LIST*
D10*
X126224809Y-79321427D02*
X125724809Y-79321427D01*
X125724809Y-79321427D02*
X126081952Y-79154760D01*
X126081952Y-79154760D02*
X125724809Y-78988094D01*
X125724809Y-78988094D02*
X126224809Y-78988094D01*
X126224809Y-78749998D02*
X125891476Y-78749998D01*
X125724809Y-78749998D02*
X125748619Y-78773807D01*
X125748619Y-78773807D02*
X125772428Y-78749998D01*
X125772428Y-78749998D02*
X125748619Y-78726188D01*
X125748619Y-78726188D02*
X125724809Y-78749998D01*
X125724809Y-78749998D02*
X125772428Y-78749998D01*
X126201000Y-78297617D02*
X126224809Y-78345236D01*
X126224809Y-78345236D02*
X126224809Y-78440474D01*
X126224809Y-78440474D02*
X126201000Y-78488093D01*
X126201000Y-78488093D02*
X126177190Y-78511903D01*
X126177190Y-78511903D02*
X126129571Y-78535712D01*
X126129571Y-78535712D02*
X125986714Y-78535712D01*
X125986714Y-78535712D02*
X125939095Y-78511903D01*
X125939095Y-78511903D02*
X125915285Y-78488093D01*
X125915285Y-78488093D02*
X125891476Y-78440474D01*
X125891476Y-78440474D02*
X125891476Y-78345236D01*
X125891476Y-78345236D02*
X125915285Y-78297617D01*
X126224809Y-78083332D02*
X125891476Y-78083332D01*
X125986714Y-78083332D02*
X125939095Y-78059522D01*
X125939095Y-78059522D02*
X125915285Y-78035713D01*
X125915285Y-78035713D02*
X125891476Y-77988094D01*
X125891476Y-77988094D02*
X125891476Y-77940475D01*
X126224809Y-77702379D02*
X126201000Y-77749998D01*
X126201000Y-77749998D02*
X126177190Y-77773808D01*
X126177190Y-77773808D02*
X126129571Y-77797617D01*
X126129571Y-77797617D02*
X125986714Y-77797617D01*
X125986714Y-77797617D02*
X125939095Y-77773808D01*
X125939095Y-77773808D02*
X125915285Y-77749998D01*
X125915285Y-77749998D02*
X125891476Y-77702379D01*
X125891476Y-77702379D02*
X125891476Y-77630951D01*
X125891476Y-77630951D02*
X125915285Y-77583332D01*
X125915285Y-77583332D02*
X125939095Y-77559522D01*
X125939095Y-77559522D02*
X125986714Y-77535713D01*
X125986714Y-77535713D02*
X126129571Y-77535713D01*
X126129571Y-77535713D02*
X126177190Y-77559522D01*
X126177190Y-77559522D02*
X126201000Y-77583332D01*
X126201000Y-77583332D02*
X126224809Y-77630951D01*
X126224809Y-77630951D02*
X126224809Y-77702379D01*
X126224809Y-77321427D02*
X125724809Y-77321427D01*
X126224809Y-77035713D02*
X125939095Y-77249998D01*
X125724809Y-77035713D02*
X126010523Y-77321427D01*
X126201000Y-76630951D02*
X126224809Y-76678570D01*
X126224809Y-76678570D02*
X126224809Y-76773808D01*
X126224809Y-76773808D02*
X126201000Y-76821427D01*
X126201000Y-76821427D02*
X126153380Y-76845236D01*
X126153380Y-76845236D02*
X125962904Y-76845236D01*
X125962904Y-76845236D02*
X125915285Y-76821427D01*
X125915285Y-76821427D02*
X125891476Y-76773808D01*
X125891476Y-76773808D02*
X125891476Y-76678570D01*
X125891476Y-76678570D02*
X125915285Y-76630951D01*
X125915285Y-76630951D02*
X125962904Y-76607141D01*
X125962904Y-76607141D02*
X126010523Y-76607141D01*
X126010523Y-76607141D02*
X126058142Y-76845236D01*
X125891476Y-76440475D02*
X126224809Y-76321427D01*
X125891476Y-76202380D02*
X126224809Y-76321427D01*
X126224809Y-76321427D02*
X126343857Y-76369046D01*
X126343857Y-76369046D02*
X126367666Y-76392856D01*
X126367666Y-76392856D02*
X126391476Y-76440475D01*
X126224809Y-75369047D02*
X126224809Y-75654761D01*
X126224809Y-75511904D02*
X125724809Y-75511904D01*
X125724809Y-75511904D02*
X125796238Y-75559523D01*
X125796238Y-75559523D02*
X125843857Y-75607142D01*
X125843857Y-75607142D02*
X125867666Y-75654761D01*
X126177190Y-75154762D02*
X126201000Y-75130952D01*
X126201000Y-75130952D02*
X126224809Y-75154762D01*
X126224809Y-75154762D02*
X126201000Y-75178571D01*
X126201000Y-75178571D02*
X126177190Y-75154762D01*
X126177190Y-75154762D02*
X126224809Y-75154762D01*
X125724809Y-74821429D02*
X125724809Y-74773810D01*
X125724809Y-74773810D02*
X125748619Y-74726191D01*
X125748619Y-74726191D02*
X125772428Y-74702381D01*
X125772428Y-74702381D02*
X125820047Y-74678572D01*
X125820047Y-74678572D02*
X125915285Y-74654762D01*
X125915285Y-74654762D02*
X126034333Y-74654762D01*
X126034333Y-74654762D02*
X126129571Y-74678572D01*
X126129571Y-74678572D02*
X126177190Y-74702381D01*
X126177190Y-74702381D02*
X126201000Y-74726191D01*
X126201000Y-74726191D02*
X126224809Y-74773810D01*
X126224809Y-74773810D02*
X126224809Y-74821429D01*
X126224809Y-74821429D02*
X126201000Y-74869048D01*
X126201000Y-74869048D02*
X126177190Y-74892857D01*
X126177190Y-74892857D02*
X126129571Y-74916667D01*
X126129571Y-74916667D02*
X126034333Y-74940476D01*
X126034333Y-74940476D02*
X125915285Y-74940476D01*
X125915285Y-74940476D02*
X125820047Y-74916667D01*
X125820047Y-74916667D02*
X125772428Y-74892857D01*
X125772428Y-74892857D02*
X125748619Y-74869048D01*
X125748619Y-74869048D02*
X125724809Y-74821429D01*
D11*
X116588714Y-93829298D02*
X116588714Y-94031679D01*
X116588714Y-94031679D02*
X116600619Y-94055489D01*
X116600619Y-94055489D02*
X116612524Y-94067394D01*
X116612524Y-94067394D02*
X116636333Y-94079298D01*
X116636333Y-94079298D02*
X116683952Y-94079298D01*
X116683952Y-94079298D02*
X116707762Y-94067394D01*
X116707762Y-94067394D02*
X116719667Y-94055489D01*
X116719667Y-94055489D02*
X116731571Y-94031679D01*
X116731571Y-94031679D02*
X116731571Y-93829298D01*
X116838715Y-94067394D02*
X116874429Y-94079298D01*
X116874429Y-94079298D02*
X116933953Y-94079298D01*
X116933953Y-94079298D02*
X116957762Y-94067394D01*
X116957762Y-94067394D02*
X116969667Y-94055489D01*
X116969667Y-94055489D02*
X116981572Y-94031679D01*
X116981572Y-94031679D02*
X116981572Y-94007870D01*
X116981572Y-94007870D02*
X116969667Y-93984060D01*
X116969667Y-93984060D02*
X116957762Y-93972155D01*
X116957762Y-93972155D02*
X116933953Y-93960251D01*
X116933953Y-93960251D02*
X116886334Y-93948346D01*
X116886334Y-93948346D02*
X116862524Y-93936441D01*
X116862524Y-93936441D02*
X116850619Y-93924536D01*
X116850619Y-93924536D02*
X116838715Y-93900727D01*
X116838715Y-93900727D02*
X116838715Y-93876917D01*
X116838715Y-93876917D02*
X116850619Y-93853108D01*
X116850619Y-93853108D02*
X116862524Y-93841203D01*
X116862524Y-93841203D02*
X116886334Y-93829298D01*
X116886334Y-93829298D02*
X116945857Y-93829298D01*
X116945857Y-93829298D02*
X116981572Y-93841203D01*
X117088714Y-93948346D02*
X117172048Y-93948346D01*
X117207762Y-94079298D02*
X117088714Y-94079298D01*
X117088714Y-94079298D02*
X117088714Y-93829298D01*
X117088714Y-93829298D02*
X117207762Y-93829298D01*
X117457761Y-94079298D02*
X117374428Y-93960251D01*
X117314904Y-94079298D02*
X117314904Y-93829298D01*
X117314904Y-93829298D02*
X117410142Y-93829298D01*
X117410142Y-93829298D02*
X117433952Y-93841203D01*
X117433952Y-93841203D02*
X117445857Y-93853108D01*
X117445857Y-93853108D02*
X117457761Y-93876917D01*
X117457761Y-93876917D02*
X117457761Y-93912632D01*
X117457761Y-93912632D02*
X117445857Y-93936441D01*
X117445857Y-93936441D02*
X117433952Y-93948346D01*
X117433952Y-93948346D02*
X117410142Y-93960251D01*
X117410142Y-93960251D02*
X117314904Y-93960251D01*
D10*
X125063703Y-92889132D02*
X124897037Y-92651037D01*
X124777989Y-92889132D02*
X124777989Y-92389132D01*
X124777989Y-92389132D02*
X124968465Y-92389132D01*
X124968465Y-92389132D02*
X125016084Y-92412942D01*
X125016084Y-92412942D02*
X125039894Y-92436751D01*
X125039894Y-92436751D02*
X125063703Y-92484370D01*
X125063703Y-92484370D02*
X125063703Y-92555799D01*
X125063703Y-92555799D02*
X125039894Y-92603418D01*
X125039894Y-92603418D02*
X125016084Y-92627227D01*
X125016084Y-92627227D02*
X124968465Y-92651037D01*
X124968465Y-92651037D02*
X124777989Y-92651037D01*
X125516084Y-92389132D02*
X125277989Y-92389132D01*
X125277989Y-92389132D02*
X125254180Y-92627227D01*
X125254180Y-92627227D02*
X125277989Y-92603418D01*
X125277989Y-92603418D02*
X125325608Y-92579608D01*
X125325608Y-92579608D02*
X125444656Y-92579608D01*
X125444656Y-92579608D02*
X125492275Y-92603418D01*
X125492275Y-92603418D02*
X125516084Y-92627227D01*
X125516084Y-92627227D02*
X125539894Y-92674846D01*
X125539894Y-92674846D02*
X125539894Y-92793894D01*
X125539894Y-92793894D02*
X125516084Y-92841513D01*
X125516084Y-92841513D02*
X125492275Y-92865323D01*
X125492275Y-92865323D02*
X125444656Y-92889132D01*
X125444656Y-92889132D02*
X125325608Y-92889132D01*
X125325608Y-92889132D02*
X125277989Y-92865323D01*
X125277989Y-92865323D02*
X125254180Y-92841513D01*
X121326882Y-76201618D02*
X121088787Y-76368284D01*
X121326882Y-76487332D02*
X120826882Y-76487332D01*
X120826882Y-76487332D02*
X120826882Y-76296856D01*
X120826882Y-76296856D02*
X120850692Y-76249237D01*
X120850692Y-76249237D02*
X120874501Y-76225427D01*
X120874501Y-76225427D02*
X120922120Y-76201618D01*
X120922120Y-76201618D02*
X120993549Y-76201618D01*
X120993549Y-76201618D02*
X121041168Y-76225427D01*
X121041168Y-76225427D02*
X121064977Y-76249237D01*
X121064977Y-76249237D02*
X121088787Y-76296856D01*
X121088787Y-76296856D02*
X121088787Y-76487332D01*
X121326882Y-75725427D02*
X121326882Y-76011141D01*
X121326882Y-75868284D02*
X120826882Y-75868284D01*
X120826882Y-75868284D02*
X120898311Y-75915903D01*
X120898311Y-75915903D02*
X120945930Y-75963522D01*
X120945930Y-75963522D02*
X120969739Y-76011141D01*
X125061862Y-76241389D02*
X124823767Y-76408055D01*
X125061862Y-76527103D02*
X124561862Y-76527103D01*
X124561862Y-76527103D02*
X124561862Y-76336627D01*
X124561862Y-76336627D02*
X124585672Y-76289008D01*
X124585672Y-76289008D02*
X124609481Y-76265198D01*
X124609481Y-76265198D02*
X124657100Y-76241389D01*
X124657100Y-76241389D02*
X124728529Y-76241389D01*
X124728529Y-76241389D02*
X124776148Y-76265198D01*
X124776148Y-76265198D02*
X124799957Y-76289008D01*
X124799957Y-76289008D02*
X124823767Y-76336627D01*
X124823767Y-76336627D02*
X124823767Y-76527103D01*
X124609481Y-76050912D02*
X124585672Y-76027103D01*
X124585672Y-76027103D02*
X124561862Y-75979484D01*
X124561862Y-75979484D02*
X124561862Y-75860436D01*
X124561862Y-75860436D02*
X124585672Y-75812817D01*
X124585672Y-75812817D02*
X124609481Y-75789008D01*
X124609481Y-75789008D02*
X124657100Y-75765198D01*
X124657100Y-75765198D02*
X124704719Y-75765198D01*
X124704719Y-75765198D02*
X124776148Y-75789008D01*
X124776148Y-75789008D02*
X125061862Y-76074722D01*
X125061862Y-76074722D02*
X125061862Y-75765198D01*
X119052369Y-76210767D02*
X118814274Y-76377433D01*
X119052369Y-76496481D02*
X118552369Y-76496481D01*
X118552369Y-76496481D02*
X118552369Y-76306005D01*
X118552369Y-76306005D02*
X118576179Y-76258386D01*
X118576179Y-76258386D02*
X118599988Y-76234576D01*
X118599988Y-76234576D02*
X118647607Y-76210767D01*
X118647607Y-76210767D02*
X118719036Y-76210767D01*
X118719036Y-76210767D02*
X118766655Y-76234576D01*
X118766655Y-76234576D02*
X118790464Y-76258386D01*
X118790464Y-76258386D02*
X118814274Y-76306005D01*
X118814274Y-76306005D02*
X118814274Y-76496481D01*
X118719036Y-75782195D02*
X119052369Y-75782195D01*
X118528560Y-75901243D02*
X118885702Y-76020290D01*
X118885702Y-76020290D02*
X118885702Y-75710767D01*
X115316807Y-76364987D02*
X115078712Y-76531653D01*
X115316807Y-76650701D02*
X114816807Y-76650701D01*
X114816807Y-76650701D02*
X114816807Y-76460225D01*
X114816807Y-76460225D02*
X114840617Y-76412606D01*
X114840617Y-76412606D02*
X114864426Y-76388796D01*
X114864426Y-76388796D02*
X114912045Y-76364987D01*
X114912045Y-76364987D02*
X114983474Y-76364987D01*
X114983474Y-76364987D02*
X115031093Y-76388796D01*
X115031093Y-76388796D02*
X115054902Y-76412606D01*
X115054902Y-76412606D02*
X115078712Y-76460225D01*
X115078712Y-76460225D02*
X115078712Y-76650701D01*
X114816807Y-76198320D02*
X114816807Y-75888796D01*
X114816807Y-75888796D02*
X115007283Y-76055463D01*
X115007283Y-76055463D02*
X115007283Y-75984034D01*
X115007283Y-75984034D02*
X115031093Y-75936415D01*
X115031093Y-75936415D02*
X115054902Y-75912606D01*
X115054902Y-75912606D02*
X115102521Y-75888796D01*
X115102521Y-75888796D02*
X115221569Y-75888796D01*
X115221569Y-75888796D02*
X115269188Y-75912606D01*
X115269188Y-75912606D02*
X115292998Y-75936415D01*
X115292998Y-75936415D02*
X115316807Y-75984034D01*
X115316807Y-75984034D02*
X115316807Y-76126891D01*
X115316807Y-76126891D02*
X115292998Y-76174510D01*
X115292998Y-76174510D02*
X115269188Y-76198320D01*
D11*
X122160714Y-94119433D02*
X122160714Y-93869433D01*
X122160714Y-93869433D02*
X122255952Y-93869433D01*
X122255952Y-93869433D02*
X122279762Y-93881338D01*
X122279762Y-93881338D02*
X122291667Y-93893243D01*
X122291667Y-93893243D02*
X122303571Y-93917052D01*
X122303571Y-93917052D02*
X122303571Y-93952767D01*
X122303571Y-93952767D02*
X122291667Y-93976576D01*
X122291667Y-93976576D02*
X122279762Y-93988481D01*
X122279762Y-93988481D02*
X122255952Y-94000386D01*
X122255952Y-94000386D02*
X122160714Y-94000386D01*
X122458333Y-93869433D02*
X122505952Y-93869433D01*
X122505952Y-93869433D02*
X122529762Y-93881338D01*
X122529762Y-93881338D02*
X122553571Y-93905148D01*
X122553571Y-93905148D02*
X122565476Y-93952767D01*
X122565476Y-93952767D02*
X122565476Y-94036100D01*
X122565476Y-94036100D02*
X122553571Y-94083719D01*
X122553571Y-94083719D02*
X122529762Y-94107529D01*
X122529762Y-94107529D02*
X122505952Y-94119433D01*
X122505952Y-94119433D02*
X122458333Y-94119433D01*
X122458333Y-94119433D02*
X122434524Y-94107529D01*
X122434524Y-94107529D02*
X122410714Y-94083719D01*
X122410714Y-94083719D02*
X122398810Y-94036100D01*
X122398810Y-94036100D02*
X122398810Y-93952767D01*
X122398810Y-93952767D02*
X122410714Y-93905148D01*
X122410714Y-93905148D02*
X122434524Y-93881338D01*
X122434524Y-93881338D02*
X122458333Y-93869433D01*
X122648810Y-93869433D02*
X122708334Y-94119433D01*
X122708334Y-94119433D02*
X122755953Y-93940862D01*
X122755953Y-93940862D02*
X122803572Y-94119433D01*
X122803572Y-94119433D02*
X122863096Y-93869433D01*
X120380952Y-92993357D02*
X120380952Y-93112404D01*
X120297619Y-92862404D02*
X120380952Y-92993357D01*
X120380952Y-92993357D02*
X120464286Y-92862404D01*
X120678572Y-93112404D02*
X120535715Y-93112404D01*
X120607143Y-93112404D02*
X120607143Y-92862404D01*
X120607143Y-92862404D02*
X120583334Y-92898119D01*
X120583334Y-92898119D02*
X120559524Y-92921928D01*
X120559524Y-92921928D02*
X120535715Y-92933833D01*
D10*
X114486933Y-92953183D02*
X114320267Y-92715088D01*
X114201219Y-92953183D02*
X114201219Y-92453183D01*
X114201219Y-92453183D02*
X114391695Y-92453183D01*
X114391695Y-92453183D02*
X114439314Y-92476993D01*
X114439314Y-92476993D02*
X114463124Y-92500802D01*
X114463124Y-92500802D02*
X114486933Y-92548421D01*
X114486933Y-92548421D02*
X114486933Y-92619850D01*
X114486933Y-92619850D02*
X114463124Y-92667469D01*
X114463124Y-92667469D02*
X114439314Y-92691278D01*
X114439314Y-92691278D02*
X114391695Y-92715088D01*
X114391695Y-92715088D02*
X114201219Y-92715088D01*
X114915505Y-92453183D02*
X114820267Y-92453183D01*
X114820267Y-92453183D02*
X114772648Y-92476993D01*
X114772648Y-92476993D02*
X114748838Y-92500802D01*
X114748838Y-92500802D02*
X114701219Y-92572231D01*
X114701219Y-92572231D02*
X114677410Y-92667469D01*
X114677410Y-92667469D02*
X114677410Y-92857945D01*
X114677410Y-92857945D02*
X114701219Y-92905564D01*
X114701219Y-92905564D02*
X114725029Y-92929374D01*
X114725029Y-92929374D02*
X114772648Y-92953183D01*
X114772648Y-92953183D02*
X114867886Y-92953183D01*
X114867886Y-92953183D02*
X114915505Y-92929374D01*
X114915505Y-92929374D02*
X114939314Y-92905564D01*
X114939314Y-92905564D02*
X114963124Y-92857945D01*
X114963124Y-92857945D02*
X114963124Y-92738897D01*
X114963124Y-92738897D02*
X114939314Y-92691278D01*
X114939314Y-92691278D02*
X114915505Y-92667469D01*
X114915505Y-92667469D02*
X114867886Y-92643659D01*
X114867886Y-92643659D02*
X114772648Y-92643659D01*
X114772648Y-92643659D02*
X114725029Y-92667469D01*
X114725029Y-92667469D02*
X114701219Y-92691278D01*
X114701219Y-92691278D02*
X114677410Y-92738897D01*
%TO.C,USER*%
D12*
X117067286Y-93506894D02*
G75*
G02*
X116967286Y-93506894I-50000J0D01*
G01*
X116967286Y-93506894D02*
G75*
G02*
X117067286Y-93506894I50000J0D01*
G01*
%TO.C,U1*%
D13*
X114840000Y-79290000D02*
X115415000Y-79290000D01*
X114840000Y-79865000D02*
X114840000Y-79290000D01*
X114840000Y-89510000D02*
X114840000Y-88935000D01*
X115415000Y-89510000D02*
X114840000Y-89510000D01*
X124485000Y-79290000D02*
X125060000Y-79290000D01*
X125060000Y-79290000D02*
X125060000Y-79865000D01*
X125060000Y-88935000D02*
X125060000Y-89510000D01*
X125060000Y-89510000D02*
X124485000Y-89510000D01*
X114200000Y-79860000D02*
X113860000Y-79390000D01*
X114540000Y-79390000D01*
X114200000Y-79860000D01*
G36*
X114200000Y-79860000D02*
G01*
X113860000Y-79390000D01*
X114540000Y-79390000D01*
X114200000Y-79860000D01*
G37*
%TO.C,R5*%
X123222371Y-92518013D02*
X123222371Y-92992529D01*
X124267371Y-92518013D02*
X124267371Y-92992529D01*
%TO.C,R1*%
X121733450Y-75950092D02*
X121733450Y-76424608D01*
X122778450Y-75950092D02*
X122778450Y-76424608D01*
%TO.C,R2*%
X123233450Y-75950092D02*
X123233450Y-76424608D01*
X124278450Y-75950092D02*
X124278450Y-76424608D01*
%TO.C,R4*%
X117138094Y-75955074D02*
X117138094Y-76429590D01*
X118183094Y-75955074D02*
X118183094Y-76429590D01*
%TO.C,J1*%
X115125259Y-70052800D02*
X115125259Y-71752800D01*
X124465259Y-70052800D02*
X124465259Y-71752800D01*
%TO.C,R3*%
X115638094Y-75955074D02*
X115638094Y-76429590D01*
X116683094Y-75955074D02*
X116683094Y-76429590D01*
%TO.C,POW*%
D12*
X122550000Y-93534054D02*
G75*
G02*
X122450000Y-93534054I-50000J0D01*
G01*
X122450000Y-93534054D02*
G75*
G02*
X122550000Y-93534054I50000J0D01*
G01*
%TO.C,Y1*%
D13*
X121720246Y-91140000D02*
X117600246Y-91140000D01*
X121720246Y-94560000D02*
X121720246Y-91140000D01*
%TO.C,R6*%
X115277959Y-92940098D02*
X115277959Y-92465582D01*
X116322959Y-92940098D02*
X116322959Y-92465582D01*
%TD*%
M02*
